<svg width="1665" height="542" viewBox="0 0 1665 542" fill="none" xmlns="http://www.w3.org/2000/svg">
<path d="M134.5 411.5C109.167 411.5 86.5 407.333 66.5 399C46.8333 390.333 31.1667 378.667 19.5 364C8.16667 349 1.83333 332.167 0.5 313.5H95.5C96.8333 322.5 101 329.5 108 334.5C115 339.5 123.667 342 134 342C142 342 148.333 340.333 153 337C157.667 333.667 160 329.333 160 324C160 317 156.167 311.833 148.5 308.5C140.833 305.167 128.167 301.5 110.5 297.5C90.5 293.5 73.8333 289 60.5 284C47.1667 279 35.5 270.833 25.5 259.5C15.8333 248.167 11 232.833 11 213.5C11 196.833 15.5 181.833 24.5 168.5C33.5 154.833 46.6667 144 64 136C81.6667 128 102.833 124 127.5 124C164.167 124 193 133 214 151C235 169 247.167 192.667 250.5 222H162C160.333 213 156.333 206.167 150 201.5C144 196.5 135.833 194 125.5 194C117.5 194 111.333 195.5 107 198.5C103 201.5 101 205.667 101 211C101 217.667 104.833 222.833 112.5 226.5C120.167 229.833 132.5 233.333 149.5 237C169.833 241.333 186.667 246.167 200 251.5C213.667 256.833 225.5 265.5 235.5 277.5C245.833 289.167 251 305.167 251 325.5C251 341.833 246.167 356.5 236.5 369.5C227.167 382.5 213.667 392.833 196 400.5C178.667 407.833 158.167 411.5 134.5 411.5ZM348.68 101.5C331.346 101.5 317.346 96.8333 306.68 87.5C296.346 77.8333 291.18 65.8333 291.18 51.5C291.18 36.8333 296.346 24.6667 306.68 15C317.346 5.33331 331.346 0.499971 348.68 0.499971C365.68 0.499971 379.346 5.33331 389.68 15C400.346 24.6667 405.68 36.8333 405.68 51.5C405.68 65.8333 400.346 77.8333 389.68 87.5C379.346 96.8333 365.68 101.5 348.68 101.5ZM397.18 127.5V408H299.18V127.5H397.18ZM501.988 101.5C484.655 101.5 470.655 96.8333 459.988 87.5C449.655 77.8333 444.488 65.8333 444.488 51.5C444.488 36.8333 449.655 24.6667 459.988 15C470.655 5.33331 484.655 0.499971 501.988 0.499971C518.988 0.499971 532.655 5.33331 542.988 15C553.655 24.6667 558.988 36.8333 558.988 51.5C558.988 65.8333 553.655 77.8333 542.988 87.5C532.655 96.8333 518.988 101.5 501.988 101.5ZM550.988 435.5C550.988 506.5 515.322 542 443.988 542H408.488V458.5H429.488C437.822 458.5 443.822 456.833 447.488 453.5C451.155 450.167 452.988 444.667 452.988 437V127.5H550.988V435.5ZM590.309 267.5C590.309 238.5 595.475 213.167 605.809 191.5C616.475 169.833 630.809 153.167 648.809 141.5C667.142 129.833 687.475 124 709.809 124C729.142 124 745.809 127.833 759.809 135.5C773.809 143.167 784.642 153.5 792.309 166.5V127.5H890.309V408H792.309V369C784.642 382 773.642 392.333 759.309 400C745.309 407.667 728.809 411.5 709.809 411.5C687.475 411.5 667.142 405.667 648.809 394C630.809 382.333 616.475 365.667 605.809 344C595.475 322 590.309 296.5 590.309 267.5ZM792.309 267.5C792.309 249.5 787.309 235.333 777.309 225C767.642 214.667 755.642 209.5 741.309 209.5C726.642 209.5 714.475 214.667 704.809 225C695.142 235 690.309 249.167 690.309 267.5C690.309 285.5 695.142 299.833 704.809 310.5C714.475 320.833 726.642 326 741.309 326C755.642 326 767.642 320.833 777.309 310.5C787.309 300.167 792.309 285.833 792.309 267.5ZM1044.15 177C1055.15 161 1068.49 148.333 1084.15 139C1099.82 129.667 1116.65 125 1134.65 125V229.5H1107.15C1085.82 229.5 1069.99 233.667 1059.65 242C1049.32 250.333 1044.15 264.833 1044.15 285.5V408H946.152V127.5H1044.15V177ZM1335.29 324.5V408H1292.79C1221.12 408 1185.29 372.5 1185.29 301.5V209H1150.79V127.5H1185.29V59.5H1283.79V127.5H1334.79V209H1283.79V303C1283.79 310.667 1285.45 316.167 1288.79 319.5C1292.45 322.833 1298.45 324.5 1306.79 324.5H1335.29ZM1364.23 267.5C1364.23 238.5 1369.4 213.167 1379.73 191.5C1390.4 169.833 1404.73 153.167 1422.73 141.5C1441.07 129.833 1461.4 124 1483.73 124C1503.07 124 1519.73 127.833 1533.73 135.5C1547.73 143.167 1558.57 153.5 1566.23 166.5V127.5H1664.23V408H1566.23V369C1558.57 382 1547.57 392.333 1533.23 400C1519.23 407.667 1502.73 411.5 1483.73 411.5C1461.4 411.5 1441.07 405.667 1422.73 394C1404.73 382.333 1390.4 365.667 1379.73 344C1369.4 322 1364.23 296.5 1364.23 267.5ZM1566.23 267.5C1566.23 249.5 1561.23 235.333 1551.23 225C1541.57 214.667 1529.57 209.5 1515.23 209.5C1500.57 209.5 1488.4 214.667 1478.73 225C1469.07 235 1464.23 249.167 1464.23 267.5C1464.23 285.5 1469.07 299.833 1478.73 310.5C1488.4 320.833 1500.57 326 1515.23 326C1529.57 326 1541.57 320.833 1551.23 310.5C1561.23 300.167 1566.23 285.833 1566.23 267.5Z" fill="#084c61"/>
</svg>
