<svg width="624" height="624" viewBox="0 0 624 624" fill="none" xmlns="http://www.w3.org/2000/svg">
<path d="M0 90C0 40.2944 40.2944 0 90 0H534C583.706 0 624 40.2944 624 90V534C624 583.706 583.706 624 534 624H90C40.2944 624 0 583.706 0 534V90Z" fill="#177E89"/>
<path d="M323.178 496C290.816 496 261.86 490.681 236.311 480.043C211.188 468.98 191.175 454.088 176.271 435.365C161.794 416.217 153.703 394.729 152 370.901H273.357C275.061 382.39 280.383 391.325 289.325 397.708C298.267 404.09 309.339 407.282 322.539 407.282C332.758 407.282 340.849 405.154 346.81 400.899C352.772 396.644 355.753 391.112 355.753 384.304C355.753 375.369 350.856 368.773 341.062 364.518C331.268 360.263 315.087 355.583 292.519 350.477C266.97 345.37 245.679 339.626 228.647 333.243C211.614 326.861 196.711 316.436 183.936 301.969C171.587 287.501 165.413 267.928 165.413 243.249C165.413 221.973 171.162 202.826 182.659 185.805C194.156 168.359 210.975 154.53 233.118 144.318C255.686 134.106 282.725 129 314.236 129C361.075 129 397.908 140.489 424.735 163.466C451.561 186.443 467.103 216.654 471.361 254.099H358.307C356.178 242.61 351.069 233.888 342.978 227.93C335.313 221.548 324.881 218.357 311.681 218.357C301.461 218.357 293.584 220.271 288.048 224.101C282.938 227.93 280.383 233.249 280.383 240.057C280.383 248.568 285.28 255.163 295.074 259.843C304.868 264.099 320.623 268.566 342.339 273.247C368.314 278.779 389.818 284.948 406.85 291.757C424.309 298.565 439.425 309.628 452.2 324.946C465.4 339.839 472 360.263 472 386.219C472 407.069 465.826 425.791 453.477 442.386C441.554 458.981 424.309 472.172 401.741 481.958C379.598 491.319 353.411 496 323.178 496Z" fill="white"/>
</svg>
